<?xml version="1.0" encoding="UTF-8" standalone="no"?>
<svg width="600px" height="261px" viewBox="0 0 600 261" version="1.1" xmlns="http://www.w3.org/2000/svg" xmlns:xlink="http://www.w3.org/1999/xlink" xmlns:sketch="http://www.bohemiancoding.com/sketch/ns">
    <!-- Generator: Sketch 3.0.3 (7892) - http://www.bohemiancoding.com/sketch -->
    <title>Group</title>
    <desc>Created with Sketch.</desc>
    <defs></defs>
    <g id="12px-type" stroke="none" stroke-width="1" fill="none" fill-rule="evenodd" sketch:type="MSPage">
        <g id="Group" sketch:type="MSLayerGroup">
            <rect id="Rectangle-1" fill="#E4E4E4" sketch:type="MSShapeGroup" x="0" y="0" width="600" height="261" rx="9"></rect>
            <g id="6th-Row" transform="translate(15.000000, 215.000000)" sketch:type="MSShapeGroup">
                <rect id="Rectangle-77" fill="#FFFFFF" x="457" y="15" width="35" height="18" rx="4"></rect>
                <rect id="Rectangle-78" fill="#FFFFFF" x="536" y="15" width="35" height="18" rx="4"></rect>
                <g id="Rectangle-29-+-Rectangle-30" fill="#FFFFFF">
                    <rect id="Rectangle-16" x="0" y="0" width="33" height="33" rx="4"></rect>
                </g>
                <g id="Rectangle-29-+-Rectangle-31" transform="translate(38.000000, 0.000000)" fill="#FFFFFF">
                    <rect id="Rectangle-16" x="0" y="0" width="33" height="33" rx="4"></rect>
                </g>
                <g id="Rectangle-29-+-Rectangle-32" transform="translate(77.000000, 0.000000)" fill="#4990E2">
                    <rect id="Rectangle-16" x="0" y="0" width="33" height="33" rx="4"></rect>
                </g>
                <g id="Rectangle-29-+-Rectangle-33" transform="translate(412.000000, 0.000000)" fill="#FFFFFF">
                    <rect id="Rectangle-16" x="0" y="0" width="33" height="33" rx="4"></rect>
                </g>
                <g id="Rectangle-29-+-Rectangle-36" transform="translate(496.000000, 0.000000)" fill="#FFFFFF">
                    <rect id="Rectangle-16" x="0" y="0" width="35" height="33" rx="4"></rect>
                </g>
                <g id="Rectangle-29-+-Rectangle-34" transform="translate(366.000000, 0.000000)" fill="#FFFFFF">
                    <rect id="Rectangle-16" x="0" y="0" width="41" height="33" rx="4"></rect>
                </g>
                <g id="Rectangle-29-+-Rectangle-35" transform="translate(115.000000, 0.000000)" fill="#FFFFFF">
                    <rect id="Rectangle-16" x="0" y="0" width="41" height="33" rx="4"></rect>
                </g>
                <rect id="Rectangle-76" fill="#FFFFFF" x="162" y="0" width="199" height="33" rx="4"></rect>
            </g>
            <g id="5th-Row" transform="translate(14.000000, 176.000000)" sketch:type="MSShapeGroup">
                <g id="Rectangle-16" transform="translate(90.000000, 0.000000)" fill="#FFFFFF">
                    <rect x="0" y="0" width="34" height="33" rx="4"></rect>
                </g>
                <g id="Rectangle-17" transform="translate(130.000000, 0.000000)" fill="#FFFFFF">
                    <rect id="Rectangle-16" x="0" y="0" width="34" height="33" rx="4"></rect>
                </g>
                <g id="Rectangle-18" transform="translate(169.000000, 0.000000)" fill="#FFFFFF">
                    <rect id="Rectangle-16" x="0" y="0" width="34" height="33" rx="4"></rect>
                </g>
                <g id="Rectangle-19" transform="translate(209.000000, 0.000000)" fill="#FFFFFF">
                    <rect id="Rectangle-16" x="0" y="0" width="34" height="33" rx="4"></rect>
                </g>
                <g id="Rectangle-20" transform="translate(249.000000, 0.000000)" fill="#FFFFFF">
                    <rect id="Rectangle-16" x="0" y="0" width="34" height="33" rx="4"></rect>
                </g>
                <g id="Rectangle-21" transform="translate(289.000000, 0.000000)" fill="#FFFFFF">
                    <rect id="Rectangle-16" x="0" y="0" width="34" height="33" rx="4"></rect>
                </g>
                <g id="Rectangle-22" transform="translate(328.000000, 0.000000)" fill="#FFFFFF">
                    <rect id="Rectangle-16" x="0" y="0" width="34" height="33" rx="4"></rect>
                </g>
                <g id="Rectangle-23" transform="translate(368.000000, 0.000000)" fill="#FFFFFF">
                    <rect id="Rectangle-16" x="0" y="0" width="34" height="33" rx="4"></rect>
                </g>
                <g id="Rectangle-24" transform="translate(408.000000, 0.000000)" fill="#FFFFFF">
                    <rect id="Rectangle-16" x="0" y="0" width="34" height="33" rx="4"></rect>
                </g>
                <g id="Rectangle-25" transform="translate(448.000000, 0.000000)" fill="#FFFFFF">
                    <rect id="Rectangle-16" x="0" y="0" width="34" height="33" rx="4"></rect>
                </g>
                <g id="Rectangle-72" transform="translate(488.000000, 0.000000)" fill="#FFFFFF">
                    <rect id="Rectangle-70" x="0" y="0" width="84" height="33" rx="4"></rect>
                </g>
                <g id="Rectangle-73" fill="#4990E2">
                    <rect id="Rectangle-70" x="0" y="0" width="84" height="33" rx="4"></rect>
                </g>
            </g>
            <g id="4th-Row" transform="translate(14.000000, 139.000000)" fill="#FFFFFF" sketch:type="MSShapeGroup">
                <g id="Rectangle-16" transform="translate(70.000000, 0.000000)">
                    <rect x="0" y="0" width="34" height="33" rx="4"></rect>
                </g>
                <g id="Rectangle-17" transform="translate(110.000000, 0.000000)">
                    <rect id="Rectangle-16" x="0" y="0" width="34" height="33" rx="4"></rect>
                </g>
                <g id="Rectangle-18" transform="translate(149.000000, 0.000000)">
                    <rect id="Rectangle-16" x="0" y="0" width="34" height="33" rx="4"></rect>
                </g>
                <g id="Rectangle-19" transform="translate(189.000000, 0.000000)">
                    <rect id="Rectangle-16" x="0" y="0" width="34" height="33" rx="4"></rect>
                </g>
                <g id="Rectangle-20" transform="translate(229.000000, 0.000000)">
                    <rect id="Rectangle-16" x="0" y="0" width="34" height="33" rx="4"></rect>
                </g>
                <g id="Rectangle-21" transform="translate(269.000000, 0.000000)">
                    <rect id="Rectangle-16" x="0" y="0" width="34" height="33" rx="4"></rect>
                </g>
                <g id="Rectangle-22" transform="translate(308.000000, 0.000000)">
                    <rect id="Rectangle-16" x="0" y="0" width="34" height="33" rx="4"></rect>
                </g>
                <g id="Rectangle-23" transform="translate(348.000000, 0.000000)">
                    <rect id="Rectangle-16" x="0" y="0" width="34" height="33" rx="4"></rect>
                </g>
                <g id="Rectangle-24" transform="translate(388.000000, 0.000000)">
                    <rect id="Rectangle-16" x="0" y="0" width="34" height="33" rx="4"></rect>
                </g>
                <g id="Rectangle-25" transform="translate(428.000000, 0.000000)">
                    <rect id="Rectangle-16" x="0" y="0" width="34" height="33" rx="4"></rect>
                </g>
                <g id="Rectangle-26" transform="translate(467.000000, 0.000000)">
                    <rect id="Rectangle-16" x="0" y="0" width="34" height="33" rx="4"></rect>
                </g>
                <g id="Rectangle-71" transform="translate(508.000000, 0.000000)">
                    <rect id="Rectangle-70" x="0" y="0" width="64" height="33" rx="4"></rect>
                </g>
                <g id="Rectangle-74">
                    <rect id="Rectangle-70" x="0" y="0" width="64" height="33" rx="4"></rect>
                </g>
            </g>
            <g id="3rd-Row" transform="translate(14.000000, 102.000000)" fill="#FFFFFF" sketch:type="MSShapeGroup">
                <g id="Rectangle-16" transform="translate(61.000000, 0.000000)">
                    <rect x="0" y="0" width="34" height="33" rx="4"></rect>
                </g>
                <g id="Rectangle-17" transform="translate(101.000000, 0.000000)">
                    <rect id="Rectangle-16" x="0" y="0" width="34" height="33" rx="4"></rect>
                </g>
                <g id="Rectangle-18" transform="translate(140.000000, 0.000000)">
                    <rect id="Rectangle-16" x="0" y="0" width="34" height="33" rx="4"></rect>
                </g>
                <g id="Rectangle-19" transform="translate(180.000000, 0.000000)">
                    <rect id="Rectangle-16" x="0" y="0" width="34" height="33" rx="4"></rect>
                </g>
                <g id="Rectangle-20" transform="translate(220.000000, 0.000000)">
                    <rect id="Rectangle-16" x="0" y="0" width="34" height="33" rx="4"></rect>
                </g>
                <g id="Rectangle-21" transform="translate(260.000000, 0.000000)">
                    <rect id="Rectangle-16" x="0" y="0" width="34" height="33" rx="4"></rect>
                </g>
                <g id="Rectangle-22" transform="translate(299.000000, 0.000000)">
                    <rect id="Rectangle-16" x="0" y="0" width="34" height="33" rx="4"></rect>
                </g>
                <g id="Rectangle-23" transform="translate(339.000000, 0.000000)">
                    <rect id="Rectangle-16" x="0" y="0" width="34" height="33" rx="4"></rect>
                </g>
                <g id="Rectangle-24" transform="translate(379.000000, 0.000000)">
                    <rect id="Rectangle-16" x="0" y="0" width="34" height="33" rx="4"></rect>
                </g>
                <g id="Rectangle-25" transform="translate(419.000000, 0.000000)">
                    <rect id="Rectangle-16" x="0" y="0" width="34" height="33" rx="4"></rect>
                </g>
                <g id="Rectangle-26" transform="translate(458.000000, 0.000000)">
                    <rect id="Rectangle-16" x="0" y="0" width="34" height="33" rx="4"></rect>
                </g>
                <g id="Rectangle-27" transform="translate(498.000000, 0.000000)">
                    <rect id="Rectangle-16" x="0" y="0" width="34" height="33" rx="4"></rect>
                </g>
                <g id="Rectangle-28" transform="translate(538.000000, 0.000000)">
                    <rect id="Rectangle-16" x="0" y="0" width="34" height="33" rx="4"></rect>
                </g>
                <g id="Rectangle-75">
                    <rect id="Rectangle-70" x="0" y="0" width="55" height="33" rx="4"></rect>
                </g>
            </g>
            <g id="2nd-Row" transform="translate(14.000000, 65.000000)" sketch:type="MSShapeGroup">
                <g id="Rectangle-16" fill="#FFFFFF">
                    <rect x="0" y="0" width="34" height="33" rx="4"></rect>
                </g>
                <g id="Rectangle-17" transform="translate(40.000000, 0.000000)" fill="#4990E2">
                    <rect id="Rectangle-16" x="0" y="0" width="34" height="33" rx="4"></rect>
                </g>
                <g id="Rectangle-18" transform="translate(79.000000, 0.000000)" fill="#4990E2">
                    <rect id="Rectangle-16" x="0" y="0" width="34" height="33" rx="4"></rect>
                </g>
                <g id="Rectangle-19" transform="translate(119.000000, 0.000000)" fill="#4990E2">
                    <rect id="Rectangle-16" x="0" y="0" width="34" height="33" rx="4"></rect>
                </g>
                <g id="Rectangle-20" transform="translate(159.000000, 0.000000)" fill="#4990E2">
                    <rect id="Rectangle-16" x="0" y="0" width="34" height="33" rx="4"></rect>
                </g>
                <g id="Rectangle-21" transform="translate(199.000000, 0.000000)" fill="#4990E2">
                    <rect id="Rectangle-16" x="0" y="0" width="34" height="33" rx="4"></rect>
                </g>
                <g id="Rectangle-22" transform="translate(238.000000, 0.000000)" fill="#4990E2">
                    <rect id="Rectangle-16" x="0" y="0" width="34" height="33" rx="4"></rect>
                </g>
                <g id="Rectangle-23" transform="translate(278.000000, 0.000000)" fill="#4990E2">
                    <rect id="Rectangle-16" x="0" y="0" width="34" height="33" rx="4"></rect>
                </g>
                <g id="Rectangle-24" transform="translate(318.000000, 0.000000)" fill="#4990E2">
                    <rect id="Rectangle-16" x="0" y="0" width="34" height="33" rx="4"></rect>
                </g>
                <g id="Rectangle-25" transform="translate(358.000000, 0.000000)" fill="#4990E2">
                    <rect id="Rectangle-16" x="0" y="0" width="34" height="33" rx="4"></rect>
                </g>
                <g id="Rectangle-26" transform="translate(397.000000, 0.000000)" fill="#4990E2">
                    <rect id="Rectangle-16" x="0" y="0" width="34" height="33" rx="4"></rect>
                </g>
                <g id="Rectangle-27" transform="translate(437.000000, 0.000000)" fill="#FFFFFF">
                    <rect id="Rectangle-16" x="0" y="0" width="34" height="33" rx="4"></rect>
                </g>
                <g id="Rectangle-28" transform="translate(477.000000, 0.000000)" fill="#FFFFFF">
                    <rect id="Rectangle-16" x="0" y="0" width="34" height="33" rx="4"></rect>
                </g>
                <g id="Rectangle-70" transform="translate(517.000000, 0.000000)" fill="#FFFFFF">
                    <rect x="0" y="0" width="55" height="33" rx="4"></rect>
                </g>
            </g>
            <g id="1st-Row" transform="translate(14.000000, 43.000000)" fill="#FFFFFF" sketch:type="MSShapeGroup">
                <g id="Rectangle-2">
                    <rect x="0" y="0" width="34" height="18" rx="3"></rect>
                </g>
                <g id="Rectangle-3" transform="translate(41.000000, 0.000000)">
                    <rect id="Rectangle-2" x="0" y="0" width="34" height="18" rx="3"></rect>
                </g>
                <g id="Rectangle-4" transform="translate(83.000000, 0.000000)">
                    <rect id="Rectangle-2" x="0" y="0" width="34" height="18" rx="3"></rect>
                </g>
                <g id="Rectangle-5" transform="translate(124.000000, 0.000000)">
                    <rect id="Rectangle-2" x="0" y="0" width="34" height="18" rx="3"></rect>
                </g>
                <g id="Rectangle-9" transform="translate(166.000000, 0.000000)">
                    <rect id="Rectangle-2" x="0" y="0" width="34" height="18" rx="3"></rect>
                </g>
                <g id="Rectangle-6" transform="translate(207.000000, 0.000000)">
                    <rect id="Rectangle-2" x="0" y="0" width="34" height="18" rx="3"></rect>
                </g>
                <g id="Rectangle-7" transform="translate(248.000000, 0.000000)">
                    <rect id="Rectangle-2" x="0" y="0" width="34" height="18" rx="3"></rect>
                </g>
                <g id="Rectangle-8" transform="translate(290.000000, 0.000000)">
                    <rect id="Rectangle-2" x="0" y="0" width="34" height="18" rx="3"></rect>
                </g>
                <g id="Rectangle-13" transform="translate(331.000000, 0.000000)">
                    <rect id="Rectangle-2" x="0" y="0" width="34" height="18" rx="3"></rect>
                </g>
                <g id="Rectangle-10" transform="translate(373.000000, 0.000000)">
                    <rect id="Rectangle-2" x="0" y="0" width="34" height="18" rx="3"></rect>
                </g>
                <g id="Rectangle-11" transform="translate(414.000000, 0.000000)">
                    <rect id="Rectangle-2" x="0" y="0" width="34" height="18" rx="3"></rect>
                </g>
                <g id="Rectangle-12" transform="translate(455.000000, 0.000000)">
                    <rect id="Rectangle-2" x="0" y="0" width="34" height="18" rx="3"></rect>
                </g>
                <g id="Rectangle-15" transform="translate(497.000000, 0.000000)">
                    <rect id="Rectangle-2" x="0" y="0" width="34" height="18" rx="3"></rect>
                </g>
                <g id="Rectangle-14" transform="translate(538.000000, 0.000000)">
                    <rect id="Rectangle-2" x="0" y="0" width="34" height="18" rx="3"></rect>
                </g>
            </g>
            <g id="Type" transform="translate(21.000000, 77.000000)" fill="#FFFFFF" sketch:type="MSShapeGroup">
                <path d="M49.76,9 L51.224,9 L51.224,0.54 L50.192,0.54 L47.936,1.26 L48.248,2.46 L49.76,2.04 L49.76,9 Z" id="1"></path>
                <path d="M85.91,9 L91.982,9 L91.982,7.704 L87.986,7.704 L89.714,6.264 C91.202,5.052 91.898,4.332 91.898,3.012 L91.898,2.988 C91.898,1.488 90.77,0.48 89.126,0.48 C87.626,0.48 86.834,1.116 86.03,2.244 L87.074,3.06 C87.722,2.22 88.25,1.8 89.018,1.8 C89.786,1.8 90.374,2.28 90.374,3.108 C90.374,3.864 89.954,4.404 88.802,5.376 L85.91,7.836 L85.91,9 Z" id="2"></path>
                <path d="M129.024,9.144 C130.764,9.144 131.964,8.04 131.964,6.492 L131.964,6.468 C131.964,4.908 130.764,4.272 129.492,4.104 L131.832,1.704 L131.832,0.6 L126.276,0.6 L126.276,1.884 L129.912,1.884 L127.644,4.296 L127.884,5.22 L128.568,5.22 C129.744,5.22 130.5,5.688 130.5,6.516 L130.5,6.54 C130.5,7.308 129.876,7.812 129.048,7.812 C128.112,7.812 127.44,7.416 126.84,6.708 L125.808,7.668 C126.516,8.532 127.56,9.144 129.024,9.144 L129.024,9.144 Z" id="3"></path>
                <path d="M170.358,9 L171.774,9 L171.774,7.116 L172.974,7.116 L172.974,5.904 L171.774,5.904 L171.774,0.54 L170.514,0.54 L165.846,6.06 L166.122,7.116 L170.358,7.116 L170.358,9 Z M167.598,5.904 L170.358,2.58 L170.358,5.904 L167.598,5.904 Z" id="4"></path>
                <path d="M208.916,9.144 C210.776,9.144 212.024,8.016 212.024,6.3 L212.024,6.276 C212.024,4.5 210.74,3.636 209.108,3.636 C208.544,3.636 208.172,3.732 207.776,3.876 L207.908,1.908 L211.652,1.908 L211.652,0.6 L206.636,0.6 L206.396,4.716 L207.284,5.304 C207.716,5.1 208.232,4.932 208.832,4.932 C209.852,4.932 210.572,5.472 210.572,6.324 L210.572,6.348 C210.572,7.224 209.912,7.8 208.904,7.8 C208.124,7.8 207.416,7.416 206.744,6.792 L205.832,7.86 C206.624,8.628 207.632,9.144 208.916,9.144 L208.916,9.144 Z" id="5"></path>
                <path d="M248.108,9.144 C249.872,9.144 251.228,7.956 251.228,6.288 L251.228,6.264 C251.228,4.584 249.92,3.624 248.288,3.624 C247.304,3.624 246.728,4.032 246.284,4.464 C246.356,2.928 247.052,1.8 248.3,1.8 C249.032,1.8 249.536,2.076 250.124,2.532 L250.916,1.392 C250.184,0.804 249.44,0.456 248.348,0.456 C245.972,0.456 244.748,2.46 244.748,5.028 L244.748,5.052 C244.748,6.744 245.132,7.62 245.768,8.268 C246.332,8.82 247.076,9.144 248.108,9.144 Z M248.072,7.872 C247.016,7.872 246.332,7.212 246.332,6.36 L246.332,6.336 C246.332,5.532 246.992,4.86 248.036,4.86 C249.08,4.86 249.752,5.484 249.752,6.324 L249.752,6.348 C249.752,7.212 249.116,7.872 248.072,7.872 Z" id="6"></path>
                <path d="M285.618,9 L287.274,9 L291.066,1.716 L291.066,0.6 L285.162,0.6 L285.162,1.896 L289.386,1.896 L285.618,9 Z" id="7"></path>
                <path d="M328,9.12 C329.836,9.12 331.204,8.184 331.204,6.684 L331.204,6.66 C331.204,5.664 330.604,5.064 329.692,4.644 C330.4,4.272 330.916,3.708 330.916,2.772 L330.916,2.748 C330.916,1.452 329.68,0.48 328,0.48 C326.32,0.48 325.084,1.464 325.084,2.748 L325.084,2.772 C325.084,3.708 325.6,4.272 326.308,4.644 C325.36,5.04 324.796,5.676 324.796,6.696 L324.796,6.72 C324.796,8.16 326.164,9.12 328,9.12 Z M328,4.152 C327.136,4.152 326.5,3.636 326.5,2.904 L326.5,2.88 C326.5,2.244 327.1,1.716 328,1.716 C328.9,1.716 329.5,2.244 329.5,2.892 L329.5,2.916 C329.5,3.636 328.864,4.152 328,4.152 Z M328,7.884 C326.896,7.884 326.236,7.308 326.236,6.624 L326.236,6.6 C326.236,5.832 327.004,5.328 328,5.328 C328.996,5.328 329.764,5.832 329.764,6.6 L329.764,6.624 C329.764,7.32 329.104,7.884 328,7.884 Z" id="8"></path>
                <path d="M367.652,9.144 C369.908,9.144 371.252,7.272 371.252,4.572 L371.252,4.548 C371.252,2.892 370.856,1.968 370.232,1.344 C369.644,0.756 368.96,0.456 367.904,0.456 C366.044,0.456 364.772,1.716 364.772,3.36 L364.772,3.384 C364.772,5.004 365.96,6.048 367.748,6.048 C368.648,6.048 369.296,5.664 369.716,5.16 C369.668,6.708 368.924,7.8 367.688,7.8 C366.968,7.8 366.404,7.548 365.768,7.008 L364.964,8.136 C365.672,8.724 366.488,9.144 367.652,9.144 Z M367.964,4.812 C366.92,4.812 366.248,4.188 366.248,3.312 L366.248,3.288 C366.248,2.424 366.872,1.728 367.916,1.728 C368.984,1.728 369.668,2.4 369.668,3.276 L369.668,3.3 C369.668,4.116 369.032,4.812 367.964,4.812 Z" id="9"></path>
                <path d="M407.488,9.144 C409.696,9.144 411.16,7.2 411.16,4.8 L411.16,4.776 C411.16,2.376 409.708,0.456 407.512,0.456 C405.304,0.456 403.84,2.4 403.84,4.8 L403.84,4.824 C403.84,7.224 405.28,9.144 407.488,9.144 Z M407.512,7.812 C406.204,7.812 405.364,6.456 405.364,4.8 L405.364,4.776 C405.364,3.108 406.192,1.788 407.488,1.788 C408.784,1.788 409.636,3.144 409.636,4.8 L409.636,4.824 C409.636,6.48 408.82,7.812 407.512,7.812 Z" id="0"></path>
                <path d="M3.084,124.12 C4.404,124.12 5.436,123.46 5.436,122.128 L5.436,122.104 C5.436,120.964 4.392,120.544 3.468,120.256 C2.724,120.016 2.04,119.824 2.04,119.368 L2.04,119.344 C2.04,118.972 2.364,118.708 2.928,118.708 C3.456,118.708 4.104,118.936 4.716,119.308 L5.292,118.276 C4.62,117.832 3.756,117.556 2.964,117.556 C1.704,117.556 0.708,118.288 0.708,119.488 L0.708,119.512 C0.708,120.724 1.752,121.108 2.688,121.372 C3.432,121.6 4.104,121.768 4.104,122.26 L4.104,122.284 C4.104,122.704 3.744,122.968 3.12,122.968 C2.472,122.968 1.728,122.704 1.044,122.188 L0.396,123.172 C1.188,123.796 2.184,124.12 3.084,124.12 Z M6.912,124 L8.364,124 L8.364,120.424 C8.364,119.44 8.952,118.852 9.792,118.852 C10.656,118.852 11.148,119.416 11.148,120.4 L11.148,124 L12.6,124 L12.6,119.968 C12.6,118.492 11.772,117.532 10.344,117.532 C9.36,117.532 8.772,118.048 8.364,118.648 L8.364,115.24 L6.912,115.24 L6.912,124 Z M14.376,116.692 L15.936,116.692 L15.936,115.312 L14.376,115.312 L14.376,116.692 Z M14.436,124 L15.888,124 L15.888,117.664 L14.436,117.664 L14.436,124 Z M18.108,124 L19.56,124 L19.56,118.912 L21.216,118.912 L21.216,117.712 L19.536,117.712 L19.536,117.364 C19.536,116.704 19.824,116.404 20.376,116.404 C20.688,116.404 20.94,116.464 21.228,116.56 L21.228,115.336 C20.904,115.24 20.556,115.168 20.052,115.168 C19.428,115.168 18.96,115.336 18.624,115.672 C18.288,116.008 18.108,116.536 18.108,117.244 L18.108,117.7 L17.304,117.7 L17.304,118.912 L18.108,118.912 L18.108,124 Z M24.42,124.108 C24.96,124.108 25.368,123.988 25.728,123.784 L25.728,122.596 C25.44,122.74 25.152,122.812 24.828,122.812 C24.336,122.812 24.048,122.584 24.048,122.02 L24.048,118.912 L25.752,118.912 L25.752,117.664 L24.048,117.664 L24.048,115.924 L22.596,115.924 L22.596,117.664 L21.792,117.664 L21.792,118.912 L22.596,118.912 L22.596,122.248 C22.596,123.64 23.352,124.108 24.42,124.108 L24.42,124.108 Z" id="shift"></path>
                <path d="M78.924,164.144 C80.88,164.144 82.32,162.644 82.32,160.844 L82.32,160.82 C82.32,159.008 80.892,157.532 78.948,157.532 C77.004,157.532 75.564,159.032 75.564,160.844 L75.564,160.868 C75.564,162.668 76.992,164.144 78.924,164.144 Z M78.948,162.884 C77.82,162.884 77.016,161.948 77.016,160.844 L77.016,160.82 C77.016,159.716 77.76,158.804 78.924,158.804 C80.064,158.804 80.868,159.728 80.868,160.844 L80.868,160.868 C80.868,161.96 80.124,162.884 78.948,162.884 Z M83.796,165.92 L85.248,165.92 L85.248,163.016 C85.692,163.604 86.352,164.132 87.396,164.132 C88.908,164.132 90.348,162.944 90.348,160.844 L90.348,160.82 C90.348,158.72 88.896,157.532 87.396,157.532 C86.376,157.532 85.716,158.06 85.248,158.72 L85.248,157.664 L83.796,157.664 L83.796,165.92 Z M87.06,162.872 C86.076,162.872 85.212,162.068 85.212,160.844 L85.212,160.82 C85.212,159.608 86.076,158.792 87.06,158.792 C88.044,158.792 88.872,159.596 88.872,160.82 L88.872,160.844 C88.872,162.092 88.056,162.872 87.06,162.872 Z M93.96,164.108 C94.5,164.108 94.908,163.988 95.268,163.784 L95.268,162.596 C94.98,162.74 94.692,162.812 94.368,162.812 C93.876,162.812 93.588,162.584 93.588,162.02 L93.588,158.912 L95.292,158.912 L95.292,157.664 L93.588,157.664 L93.588,155.924 L92.136,155.924 L92.136,157.664 L91.332,157.664 L91.332,158.912 L92.136,158.912 L92.136,162.248 C92.136,163.64 92.892,164.108 93.96,164.108 L93.96,164.108 Z" id="opt"></path>
                <path d="M79.152,148 L79.152,145.496 C79.152,144.368 78.544,143.712 77.296,143.712 C76.608,143.712 76.152,143.856 75.688,144.064 L75.952,144.84 C76.336,144.68 76.688,144.576 77.16,144.576 C77.832,144.576 78.2,144.896 78.2,145.48 L78.2,145.56 C77.872,145.456 77.544,145.384 77.032,145.384 C76.048,145.384 75.32,145.832 75.32,146.768 L75.32,146.784 C75.32,147.632 76.024,148.088 76.824,148.088 C77.464,148.088 77.904,147.824 78.192,147.48 L78.192,148 L79.152,148 Z M78.216,146.472 C78.216,147 77.736,147.36 77.096,147.36 C76.64,147.36 76.28,147.136 76.28,146.736 L76.28,146.72 C76.28,146.312 76.64,146.064 77.248,146.064 C77.624,146.064 77.968,146.136 78.216,146.232 L78.216,146.472 Z M80.36,148 L81.328,148 L81.328,142.16 L80.36,142.16 L80.36,148 Z M84.008,148.072 C84.368,148.072 84.64,147.992 84.88,147.856 L84.88,147.064 C84.688,147.16 84.496,147.208 84.28,147.208 C83.952,147.208 83.76,147.056 83.76,146.68 L83.76,144.608 L84.896,144.608 L84.896,143.776 L83.76,143.776 L83.76,142.616 L82.792,142.616 L82.792,143.776 L82.256,143.776 L82.256,144.608 L82.792,144.608 L82.792,146.832 C82.792,147.76 83.296,148.072 84.008,148.072 L84.008,148.072 Z" id="alt" opacity="0.509036847"></path>
            </g>
        </g>
    </g>
</svg>